<svg id="Layer_1" data-name="Layer 1" xmlns="http://www.w3.org/2000/svg" xmlns:xlink="http://www.w3.org/1999/xlink" viewBox="0 0 384.38 134.19"><defs><style>.cls-1{fill:url(#radial-gradient);}.cls-2{fill:#fff;}</style><radialGradient id="radial-gradient" cx="84.37" cy="96.33" r="90.19" gradientUnits="userSpaceOnUse"><stop offset="0" stop-color="#ffbe0b"/><stop offset="1" stop-color="#ff9609"/></radialGradient></defs><path class="cls-1" d="M94.21,47.64l-3.13,6.51A208.44,208.44,0,0,1,40.26,67.8h0l-5.77-4.31,4.29-5.77h0A198,198,0,0,0,87.69,44.51ZM63.1,34.51a193.07,193.07,0,0,1-24.33,5.17l-4.26,5.74,5.73,4.29a207,207,0,0,0,24.85-5.22l4-6ZM87.84,82.87c-7.65,2.62-15.06,4.86-22.93,6.75h0l-4,6,6,4h0a147.2,147.2,0,0,0,23.93-6.94h0l3.43-6.45ZM88,63.7A217.77,217.77,0,0,1,39.37,75.77l-.6.08h0l-4.31,5.81L40.25,86h0A229.44,229.44,0,0,0,90.51,73.73h0l3.77-6.25Z"/><path class="cls-2" d="M138.11,83.39V57.33h-9.32V50.8H155l-.55,6.53h-9.05V83.39Z"/><path class="cls-2" d="M172.84,65.78a6.69,6.69,0,0,0-2.63-.49,8.7,8.7,0,0,0-5.43,1.92V83.39h-7v-24l7-.33v2.85a9.19,9.19,0,0,1,6.74-3.18,4.9,4.9,0,0,1,1.59.27Z"/><path class="cls-2" d="M190.45,83.39V81.52a11.91,11.91,0,0,1-7.24,2.36c-5.38,0-8.28-2.74-8.28-7.24,0-4.88,3.73-7.46,9.54-7.46a16.44,16.44,0,0,1,5.76,1V68.85c0-2.85-1.7-3.95-5.54-3.95a17.06,17.06,0,0,0-7.52,1.76l-.27-6.15a21.56,21.56,0,0,1,8.83-1.75c7.35,0,11.36,3,11.36,9.65v15Zm-.22-9a10.38,10.38,0,0,0-4.06-.83c-2.8,0-4.28.88-4.28,3,0,1.92,1.26,2.69,3.68,2.69a8.18,8.18,0,0,0,4.66-1.43Z"/><path class="cls-2" d="M225,83.39h-7V81.85a9.88,9.88,0,0,1-6.19,2c-5.93,0-10.92-4.72-10.92-12.29s4.83-12.83,12.29-12.83a13.18,13.18,0,0,1,4.82.88V48.88l7-.27ZM214.2,64.79c-3.78,0-6.14,2.53-6.14,6.58s2.08,6.48,5.6,6.48a7.29,7.29,0,0,0,4.27-1.26V65.51A10.31,10.31,0,0,0,214.2,64.79Z"/><path class="cls-2" d="M236,73c.66,3,3.34,4.72,7.79,4.72a15.91,15.91,0,0,0,7.51-1.87l.28,6c-1.92,1.26-5.54,2-8.28,2-9.44,0-14.65-4.93-14.65-12.67,0-7.51,5.21-12.45,12.12-12.45,6.36,0,11,4,11,10.64a30.63,30.63,0,0,1-.27,3.62Zm-.28-4h9.49V68.3a4.17,4.17,0,0,0-4.38-4.49C238,63.81,236.15,65.78,235.76,69Z"/><path class="cls-2" d="M272.57,83.88c-11,0-17.88-7.13-17.88-16.78s7.13-16.79,16.9-16.79c4.55,0,8,.93,10.69,2.8l-2.36,6.58a12.08,12.08,0,0,0-7.84-2.63c-5.76,0-9.93,3.78-9.93,10,0,5.87,4.28,10,10.64,10a15.63,15.63,0,0,0,9.27-2.63l.33,7.08C280,83.11,276.36,83.88,272.57,83.88Z"/><path class="cls-2" d="M309,83.39l-2.8-8H294.68l-2.79,8h-7.41l11.9-32.59h8.45l11.85,32.59Zm-7.3-21.18a32,32,0,0,1-1.1-4h-.27a30.29,30.29,0,0,1-1.1,4l-2.69,7.46h7.79Z"/><path class="cls-2" d="M331.82,83.39H320.19V50.8h11.63c11.14,0,18.05,6.7,18.05,16.3S342.9,83.39,331.82,83.39Zm0-26.44h-4.39v20.3h4.39c6.48,0,10.48-3.84,10.48-10.15S338.24,57,331.82,57Z"/></svg>